<svg width="389" height="344" viewBox="0 0 389 344" fill="none" xmlns="http://www.w3.org/2000/svg">
<path d="M232.191 8.92133V-2.02254e-05C257.719 -2.02254e-05 278.487 20.7707 278.487 46.3013H269.564C269.564 25.6893 252.797 8.92133 232.191 8.92133ZM232.191 29.416V20.4933C246.42 20.4933 257.999 32.072 257.999 46.3013H249.076C249.076 36.9907 241.504 29.416 232.191 29.416ZM226.472 46.3147C226.472 43.1293 229.02 40.5813 232.207 40.5813C235.328 40.5813 237.94 43.1293 237.94 46.3147C237.94 49.436 235.328 52.048 232.207 52.048C229.02 52.048 226.472 49.436 226.472 46.3147ZM170.153 101.487C163.209 90.3387 163.719 75.748 173.529 64.9813C176.969 61.1587 180.028 58.228 182.576 55.488C186.399 51.412 188.948 47.9067 189.776 43.7027C189.903 43.256 189.903 42.6827 190.031 42.1093C190.031 41.664 190.221 41.1533 190.221 40.5813V40.1987C190.221 39.752 190.285 39.3066 190.285 38.7333C190.795 34.1453 193.28 29.432 197.612 27.2653L217.808 47.4613L214.304 48.9267L207.36 51.7933C205.065 53.004 200.733 53.5133 201.18 56.444L205.065 70.7787L185.571 96.2626L186.08 96.6453C190.604 93.332 194.745 89.764 198.632 85.9426C203.091 81.6733 207.232 77.1506 211.245 72.5C210.481 67.7213 209.335 62.8786 208.188 58.1013C212.775 55.9986 217.299 53.768 221.695 51.348L254.696 84.2853C252.275 89.2546 246.477 91.676 241.38 91.8667C232.588 92.1213 227.747 98.492 217.043 108.559C213.667 111.489 209.972 113.656 206.021 114.929C201.625 116.459 197.039 116.713 192.451 116.013C188.183 115.44 184.105 114.037 180.347 111.617C179.2 114.42 176.524 116.395 173.148 116.395C168.943 116.395 165.503 112.955 165.503 108.623C165.503 105.373 167.477 102.697 170.153 101.487ZM338.565 331.123C338.565 338.792 331.909 343.341 323.147 343.341C313.961 343.341 307.473 338.96 306.377 331.292H316.743C317.584 333.988 319.944 335.42 323.063 335.42C326.263 335.42 328.369 334.157 328.369 331.713C328.369 330.028 327.191 329.185 324.579 328.511L316.995 326.827C311.265 325.477 307.22 322.528 307.22 316.209C307.22 308.879 313.793 303.991 322.219 303.991C331.741 303.991 336.965 308.541 338.228 315.619H328.285C327.612 313.512 325.843 311.912 322.387 311.912C319.86 311.912 317.416 313.092 317.416 315.451C317.416 316.968 318.427 317.811 320.787 318.4L328.539 320.169C335.111 321.771 338.565 325.393 338.565 331.123ZM300.903 331.123C300.903 338.792 294.247 343.341 285.484 343.341C276.299 343.341 269.811 338.96 268.715 331.292H279.08C279.921 333.988 282.281 335.42 285.399 335.42C288.601 335.42 290.707 334.157 290.707 331.713C290.707 330.028 289.528 329.185 286.916 328.511L279.332 326.827C273.603 325.477 269.559 322.528 269.559 316.209C269.559 308.879 276.131 303.991 284.556 303.991C294.079 303.991 299.303 308.541 300.567 315.619H290.623C289.949 313.512 288.18 311.912 284.725 311.912C282.197 311.912 279.753 313.092 279.753 315.451C279.753 316.968 280.764 317.811 283.124 318.4L290.876 320.169C297.448 321.771 300.903 325.393 300.903 331.123ZM238.723 319.579C239.649 314.945 242.515 312.501 246.559 312.501C250.856 312.501 253.215 315.619 253.3 319.579H238.723ZM246.475 303.991C235.941 303.991 228.357 312.333 228.357 323.708C228.357 335.336 235.689 343.341 246.643 343.341C256.08 343.341 261.979 338.201 263.327 330.196H253.636C252.793 333.399 250.181 334.915 246.643 334.915C242.008 334.915 238.807 331.544 238.469 325.9H263.58V322.697C263.58 311.659 257.512 303.991 246.475 303.991ZM211.169 287.728H221.617V342.499H211.169V287.728ZM179.659 319.579C180.585 314.945 183.451 312.501 187.495 312.501C191.792 312.501 194.152 315.619 194.236 319.579H179.659ZM187.411 303.991C176.879 303.991 169.295 312.333 169.295 323.708C169.295 335.336 176.625 343.341 187.579 343.341C197.016 343.341 202.915 338.201 204.263 330.196H194.573C193.731 333.399 191.119 334.915 187.579 334.915C182.945 334.915 179.743 331.544 179.405 325.9H204.516V322.697C204.516 311.659 198.449 303.991 187.411 303.991ZM161.88 303.991C163.649 303.991 165.249 304.328 165.84 304.665V315.113C164.408 314.271 162.553 313.849 160.616 313.849C157.077 313.849 154.212 315.704 153.453 319.157V342.499H143.005V304.833H153.453V308.541C155.055 305.845 158.172 303.991 161.88 303.991ZM133.991 293.964C133.991 297.503 131.125 299.947 127.84 299.947C124.468 299.947 121.604 297.503 121.604 293.964C121.604 290.509 124.468 287.981 127.84 287.981C131.125 287.981 133.991 290.509 133.991 293.964ZM122.615 304.833H133.063V342.499H122.615V304.833ZM105.599 290.761H116.216L102.735 342.499H92.8747L83.7747 308.372L74.6747 342.499H64.816L51.3347 290.761H62.204L70.6307 325.561L79.7307 290.761H88.156L97.088 325.561L105.599 290.761ZM388.844 229.813L369.211 281.381H358.931L364.408 267.647L349.999 229.813H361.037L369.716 254.84L378.311 229.813H388.844ZM341.323 259.052C342.923 259.052 344.692 258.547 345.872 257.788V267.057C344.44 267.816 341.912 268.237 339.131 268.237C331.464 268.237 326.661 264.445 326.661 256.103V238.24H320.931V229.813H326.661V219.617H337.024V229.813H345.283V238.24H337.024V254.755C337.024 257.704 338.625 259.052 341.323 259.052ZM314.444 267.479H303.996V229.813H314.444V267.479ZM302.985 218.944C302.985 215.488 305.849 212.961 309.22 212.961C312.507 212.961 315.371 215.488 315.371 218.944C315.371 222.483 312.507 224.927 309.22 224.927C305.849 224.927 302.985 222.483 302.985 218.944ZM282.007 228.971C290.517 228.971 295.32 234.532 295.32 242.875V267.479H284.872V245.064C284.872 241.104 282.849 238.408 278.721 238.408C275.519 238.408 272.739 240.345 271.896 243.632V267.479H261.447V229.813H271.896V233.268C273.919 230.909 277.625 228.971 282.007 228.971ZM231.875 268.321C223.448 268.321 218.645 262.76 218.645 254.417V229.813H229.093V252.311C229.093 256.272 231.032 258.968 235.16 258.968C238.363 258.968 241.143 257.029 241.901 253.744V229.813H252.435V267.479H241.985V264.024C239.879 266.383 236.256 268.321 231.875 268.321ZM210.392 242.875V267.479H199.944V245.064C199.944 241.02 198.173 238.324 194.551 238.324C191.855 238.324 189.411 240.009 188.737 243.211V267.479H178.204V245.064C178.204 241.02 176.519 238.324 172.896 238.324C170.199 238.324 167.671 240.009 166.997 243.211V267.479H156.548V229.813H166.997V232.931C168.851 230.572 172.305 228.971 176.519 228.971C180.985 228.971 184.524 230.993 186.631 233.775C189.073 231.077 192.697 228.971 198.005 228.971C205.757 228.971 210.392 234.364 210.392 242.875ZM137.425 267.479V245.064C137.425 241.02 135.656 238.324 132.033 238.324C129.336 238.324 126.893 240.009 126.219 243.211V267.479H115.685V245.064C115.685 241.02 114.001 238.324 110.377 238.324C107.681 238.324 105.153 240.009 104.479 243.211V267.479H94.0307V229.813H104.479V232.931C106.333 230.572 109.788 228.971 114.001 228.971C118.467 228.971 122.005 230.993 124.112 233.775C126.556 231.077 130.179 228.971 135.488 228.971C143.24 228.971 147.875 234.364 147.875 242.875V267.479H137.425ZM68.9227 237.819C74.1467 237.819 77.012 242.368 77.012 248.688C77.012 254.924 74.1467 259.473 68.9227 259.473C63.6987 259.473 60.8347 254.924 60.8347 248.688C60.8347 242.368 63.6987 237.819 68.9227 237.819ZM68.9227 268.321C79.8773 268.321 87.3773 260.232 87.3773 248.688C87.3773 237.06 79.8773 228.971 68.9227 228.971C57.9693 228.971 50.4693 237.06 50.4693 248.688C50.4693 260.232 57.9693 268.321 68.9227 268.321ZM10.9547 241.611C10.9547 251.384 15.8414 258.716 24.1 258.716C30.0827 258.716 33.284 255.513 35.0533 250.711H45.7547C43.816 261.159 36.3174 268.321 24.1 268.321C10.28 268.321 0 257.452 0 241.611C0 225.769 10.28 214.899 24.1 214.899C36.3174 214.899 43.816 222.061 45.7547 232.425H35.0533C33.284 227.707 30.0827 224.505 24.1 224.505C15.8414 224.505 10.9547 231.752 10.9547 241.611ZM277.436 166.067H287.969L268.336 217.635H258.056L263.533 203.901L249.125 166.067H260.163L268.841 191.093L277.436 166.067ZM232.189 148.963H242.637V203.733H232.189V148.963ZM211.799 148.963H222.247V203.733H211.799V148.963ZM191.409 166.067H201.857V203.732H191.409V166.067ZM202.785 155.197C202.785 158.737 199.92 161.18 196.635 161.18C193.264 161.18 190.399 158.737 190.399 155.197C190.399 151.743 193.264 149.215 196.635 149.215C199.92 149.215 202.785 151.743 202.785 155.197ZM158.467 203.732H148.019V148.963H158.467V169.523C160.489 167.163 164.196 165.224 168.579 165.224C177.088 165.224 181.891 170.785 181.891 179.128V203.732H171.443V181.319C171.443 177.359 169.421 174.661 165.292 174.661C162.089 174.661 159.309 176.6 158.467 179.885V203.732ZM112.632 161.18H122.323C127.883 161.18 130.579 164.297 130.579 168.932C130.579 173.399 127.883 176.6 122.323 176.6H112.632V161.18ZM112.632 185.784H122.996C133.949 185.784 141.197 179.885 141.197 168.932C141.197 157.893 133.949 151.996 122.996 151.996H101.931V203.732H112.632V185.784Z" fill="#5262ED"/>
</svg>
