<svg width="502" height="640" viewBox="0 0 502 640" fill="none" xmlns="http://www.w3.org/2000/svg">
<path d="M303.828 287.017C295.584 303.938 275.84 312.182 258.485 312.834C228.545 313.701 212.059 335.395 175.611 369.674C164.112 379.654 151.529 387.03 138.079 391.369C123.109 396.575 107.489 397.445 91.8681 395.057C77.3334 393.105 63.4481 388.331 50.6481 380.087C46.7428 389.634 37.6308 396.359 26.1335 396.359C11.8135 396.359 0.098789 384.643 0.098789 369.891C0.098789 358.827 6.82411 349.715 15.9361 345.593C-7.71056 307.627 -5.97588 257.945 27.4348 221.281C39.1495 208.263 49.5628 198.283 58.2414 188.955C71.2574 175.071 79.9361 163.138 82.7561 148.819C83.1908 147.301 83.1908 145.349 83.6241 143.397C83.6241 141.878 84.2748 140.142 84.2748 138.19V136.889C84.2748 135.369 84.4921 133.85 84.4921 131.897C86.2268 116.278 94.6881 100.223 109.441 92.8459L178.213 161.619L166.281 166.61L142.635 176.373C134.824 180.495 120.071 182.23 121.589 192.21L134.824 241.023L68.4375 327.803L70.1735 329.105C85.5775 317.823 99.6774 305.674 112.913 292.658C128.099 278.122 142.2 262.718 155.868 246.882C153.265 230.61 149.36 214.122 145.455 197.851C161.075 190.691 176.479 183.098 191.448 174.854L303.828 287.017Z" fill="#5262ED"/>
<path d="M246.77 157.714C246.77 168.345 237.874 177.241 227.245 177.241C216.397 177.241 207.72 168.345 207.72 157.714C207.72 146.866 216.397 138.19 227.245 138.19C237.874 138.19 246.77 146.866 246.77 157.714Z" fill="#5262ED"/>
<path d="M315.073 157.669H284.691C284.691 125.964 258.907 100.169 227.191 100.169V69.788C275.645 69.788 315.073 109.216 315.073 157.669Z" fill="#5262ED"/>
<path d="M384.84 157.669H354.459C354.459 87.4786 297.361 30.3813 227.192 30.3813V-1.09472e-05C314.12 -1.09472e-05 384.84 70.7306 384.84 157.669Z" fill="#5262ED"/>
<path d="M297.55 380.327H291.659V390.106H297.55C301.236 390.106 302.892 388.155 302.892 385.217C302.892 382.251 301.236 380.327 297.55 380.327ZM291.659 398.601V410.73H281.574V371.778H298.631C307.074 371.778 312.778 376.534 312.778 385.217C312.778 393.846 307.074 398.601 298.631 398.601H291.659Z" fill="#5262ED"/>
<path d="M358.983 371.778V410.73H348.778V395.316H333.737V410.73H323.518V371.778H333.737V386.552H348.778V371.778H358.983Z" fill="#5262ED"/>
<path d="M381.344 410.731H371.112V371.779H381.344V410.731Z" fill="#5262ED"/>
<path d="M393.527 371.778H403.759V401.914H421.204V410.73H393.527V371.778Z" fill="#5262ED"/>
<path d="M432.265 371.778H442.497V401.914H459.943V410.73H432.265V371.778Z" fill="#5262ED"/>
<path d="M490.399 371.778H501.139L487.033 396.892V410.73H476.827V396.892L462.989 371.778H474.049L482.225 387.006L490.399 371.778Z" fill="#5262ED"/>
<path d="M124.937 447.331C134.635 447.331 140.352 453.102 141.741 461.037H131.589C130.575 458.178 128.491 456.281 124.937 456.281C119.541 456.281 116.495 461.037 116.495 467.449C116.495 473.781 119.541 478.615 124.937 478.615C128.491 478.615 130.575 476.719 131.589 473.781H141.741C140.352 481.795 134.635 487.566 124.937 487.566C114.024 487.566 106.209 479.257 106.209 467.449C106.209 455.641 114.024 447.331 124.937 447.331Z" fill="#5262ED"/>
<path d="M169.82 456.281C164.558 456.281 161.124 460.716 161.124 467.448C161.124 474.181 164.558 478.616 169.82 478.616C175.083 478.616 178.636 474.181 178.636 467.448C178.636 460.716 175.083 456.281 169.82 456.281ZM169.82 487.565C158.586 487.565 150.852 479.044 150.852 467.448C150.852 455.773 158.586 447.332 169.82 447.332C181.108 447.332 188.922 455.773 188.922 467.448C188.922 479.044 181.108 487.565 169.82 487.565Z" fill="#5262ED"/>
<path d="M217.188 486.924L209.067 463.762V486.924H199.556V447.972H211.979L220.555 472.204L229.049 447.972H241.42V486.924H231.841V463.762L223.787 486.924H217.188Z" fill="#5262ED"/>
<path d="M271.275 486.924L263.153 463.762V486.924H253.629V447.972H266.079L274.641 472.204L283.136 447.972H295.52V486.924H285.928V463.762L277.873 486.924H271.275Z" fill="#5262ED"/>
<path d="M307.274 471.002V447.972H317.426V470.12C317.426 475.623 320.032 478.482 324.28 478.482C328.473 478.482 331.065 475.623 331.065 470.12V447.972H341.217V471.055C341.217 481.715 334.565 487.566 324.28 487.566C314.006 487.566 307.274 481.715 307.274 471.002Z" fill="#5262ED"/>
<path d="M387.382 486.924H379.128L362.804 464.135V486.924H352.972V447.972H362.484L377.524 469.426V447.972H387.382V486.924Z" fill="#5262ED"/>
<path d="M409.824 486.924H399.592V447.972H409.824V486.924Z" fill="#5262ED"/>
<path d="M420.35 447.972H454.627V456.708H442.578V486.924H432.346V456.708H420.35V447.972Z" fill="#5262ED"/>
<path d="M490.399 447.972H501.139L487.033 473.086V486.924H476.827V473.086L462.989 447.972H474.049L482.225 463.2L490.399 447.972Z" fill="#5262ED"/>
<path d="M215.144 524.167L221.101 547.063L226.499 524.167H236.771L226.499 563.119H217.175L211.149 540.276L205.059 563.119H195.721L185.503 524.167H195.921L201.372 547.063L207.396 524.167H215.144Z" fill="#5262ED"/>
<path d="M256.661 563.119H246.443V524.167H256.661V563.119Z" fill="#5262ED"/>
<path d="M278.955 542.12H285.301C288.921 542.12 290.563 540.276 290.563 537.417C290.563 534.56 288.921 532.716 285.301 532.716H278.955V542.12ZM278.955 550.241V563.118H268.857V524.166H286.382C294.745 524.166 300.529 528.922 300.529 537.417C300.529 543.322 297.55 547.382 292.781 549.146L301.918 563.118H290.63L282.509 550.241H278.955Z" fill="#5262ED"/>
<path d="M339.507 524.167V532.903H321.674V538.995H337.985V547.569H321.674V554.303H339.507V563.119H311.655V524.167H339.507Z" fill="#5262ED"/>
<path d="M350.942 524.167H361.147V554.303H378.592V563.119H350.942V524.167Z" fill="#5262ED"/>
<path d="M417.518 524.167V532.903H399.671V538.995H415.995V547.569H399.671V554.303H417.518V563.119H389.653V524.167H417.518Z" fill="#5262ED"/>
<path d="M437.395 551.577C438.223 554.223 440.493 555.559 443.673 555.559C446.799 555.559 448.936 554.223 448.936 551.817C448.936 549.975 447.733 549.147 445.276 548.585L437.769 547.009C432.079 545.727 427.751 542.761 427.751 536.163C427.751 528.548 434.108 523.525 442.737 523.525C452.249 523.525 457.645 528.735 458.715 535.468H448.749C447.921 533.304 446.157 531.647 442.791 531.647C439.879 531.647 437.903 532.903 437.903 535.067C437.903 536.777 439.104 537.739 441.135 538.192L448.749 539.956C455.428 541.559 459.088 545.165 459.088 551.176C459.088 559.192 452.383 563.76 443.86 563.76C434.536 563.76 428.204 559.245 426.815 551.577H437.395Z" fill="#5262ED"/>
<path d="M478.297 551.577C479.125 554.223 481.422 555.559 484.576 555.559C487.701 555.559 489.838 554.223 489.838 551.817C489.838 549.975 488.636 549.147 486.178 548.585L478.672 547.009C472.981 545.727 468.653 542.761 468.653 536.163C468.653 528.548 475.01 523.525 483.64 523.525C493.152 523.525 498.548 528.735 499.617 535.468H489.652C488.824 533.304 487.06 531.647 483.693 531.647C480.781 531.647 478.805 532.903 478.805 535.067C478.805 536.777 480.006 537.739 482.037 538.192L489.652 539.956C496.33 541.559 499.99 545.165 499.99 551.176C499.99 559.192 493.285 563.76 484.762 563.76C475.438 563.76 469.106 559.245 467.69 551.577H478.297Z" fill="#5262ED"/>
<path d="M360.159 627.852C363.445 627.852 366.063 630.417 366.063 633.756C366.063 637.122 363.445 639.74 360.159 639.74C356.927 639.74 354.308 637.122 354.308 633.756C354.308 630.417 356.927 627.852 360.159 627.852Z" fill="#5262ED"/>
<path d="M392.325 608.643C387.062 608.643 383.642 613.077 383.642 619.809C383.642 626.543 387.062 630.977 392.325 630.977C397.587 630.977 401.167 626.543 401.167 619.809C401.167 613.077 397.587 608.643 392.325 608.643ZM392.325 639.927C381.103 639.927 373.357 631.432 373.357 619.809C373.357 608.135 381.103 599.693 392.325 599.693C403.626 599.693 411.426 608.135 411.426 619.809C411.426 631.432 403.626 639.927 392.325 639.927Z" fill="#5262ED"/>
<path d="M432.132 618.287H438.464C442.097 618.287 443.753 616.443 443.753 613.584C443.753 610.727 442.097 608.883 438.464 608.883H432.132V618.287ZM432.132 626.408V639.286H422.033V600.334H439.558C447.921 600.334 453.692 605.09 453.692 613.584C453.692 619.49 450.726 623.55 445.97 625.34L455.108 639.286H443.806L435.685 626.408H432.132Z" fill="#5262ED"/>
<path d="M483.934 626.088V618.473H500.044V622.348C500.044 633.141 492.938 639.927 482.598 639.927C471.325 639.927 463.309 631.672 463.309 619.809C463.309 607.948 471.325 599.692 482.492 599.692C492.51 599.692 498.281 605.463 499.75 613.397H489.33C488.262 610.405 486.152 608.643 482.492 608.643C476.828 608.643 473.596 613.344 473.596 619.809C473.596 626.463 477.014 630.977 482.598 630.977C486.473 630.977 489.01 629.08 489.972 626.088H483.934Z" fill="#5262ED"/>
</svg>
