<?xml version="1.0" encoding="utf-8"?>
<!-- Generator: Adobe Illustrator 26.0.2, SVG Export Plug-In . SVG Version: 6.00 Build 0)  -->
<svg version="1.1" id="Layer_1" xmlns="http://www.w3.org/2000/svg" xmlns:xlink="http://www.w3.org/1999/xlink" x="0px" y="0px"
	 viewBox="0 0 1063.6 768" style="enable-background:new 0 0 1063.6 768;" xml:space="preserve">
<style type="text/css">
	.st0{fill:#fff;}
</style>
<path class="st0" d="M99.63,344.03h25.38c26.82,0,44.57-14.44,44.57-41.27c0-27.03-17.75-41.48-44.57-41.48H73.42v126.7h26.21
	V344.03z M99.63,283.77h23.73c13.62,0,20.22,7.63,20.22,18.98c0,10.94-6.6,18.78-20.22,18.78H99.63V283.77z M211.87,387.98h-25.59
	V253.85h25.59v50.35c4.95-5.78,14.03-10.52,24.76-10.52c20.84,0,32.6,13.62,32.6,34.05v60.25h-25.59v-54.89
	c0-9.7-4.95-16.3-15.06-16.3c-7.84,0-14.65,4.75-16.71,12.79V387.98z M292.55,295.74h25.59v92.24h-25.59V295.74z M290.07,269.12
	c0-8.46,7.01-14.65,15.27-14.65c8.05,0,15.06,6.19,15.06,14.65c0,8.67-7.01,14.65-15.06,14.65
	C297.09,283.77,290.07,277.79,290.07,269.12z M368.07,387.98h-25.59V253.85h25.59V387.98z M418,387.98h-25.59V253.85H418V387.98z
	 M469.17,388.39l-35.29-92.65h27.03l21.25,61.29l21.05-61.29h25.79l-48.08,126.28h-25.18L469.17,388.39z M712.23,348.13
	c-9,7.81-18.86,13.59-29.39,16.99c-11.72,4.08-23.95,4.76-36.19,2.89c-11.38-1.53-22.25-5.27-32.28-11.72
	c-3.06,7.47-10.19,12.74-19.2,12.74c-11.21,0-20.39-9.17-20.39-20.73c0-8.66,5.27-15.8,12.4-19.03c-18.52-29.73-17.16-68.63,9-97.34
	c9.17-10.19,17.33-18.01,24.12-25.31c10.19-10.87,16.99-20.22,19.2-31.43c0.34-1.19,0.34-2.72,0.68-4.25c0-1.19,0.51-2.55,0.51-4.08
	v-1.02c0-1.19,0.17-2.38,0.17-3.91c1.36-12.23,7.98-24.8,19.54-30.58l53.85,53.85l-9.34,3.91l-18.52,7.64
	c-6.12,3.23-17.67,4.59-16.48,12.4l10.36,38.22l-51.98,67.95l1.36,1.02c12.06-8.83,23.1-18.35,33.47-28.54
	c11.89-11.38,22.93-23.44,33.64-35.85c-2.04-12.74-5.1-25.65-8.15-38.39c12.23-5.61,24.29-11.55,36.02-18.01l88,87.83
	c-6.46,13.25-21.92,19.71-35.51,20.22C753.69,304.3,740.78,321.28,712.23,348.13z M737.38,182.15c0-8.49,6.79-15.29,15.29-15.29
	c8.32,0,15.29,6.79,15.29,15.29c0,8.32-6.97,15.29-15.29,15.29C744.17,197.44,737.38,190.47,737.38,182.15z M752.62,137.09V113.3
	c37.94,0,68.82,30.87,68.82,68.82h-23.79C797.65,157.29,777.46,137.09,752.62,137.09z M752.62,82.44V58.65
	c68.07,0,123.45,55.39,123.45,123.46h-23.79C852.28,127.15,807.57,82.44,752.62,82.44z M62.28,484.86
	c0-38.79,25.17-65.41,59.02-65.41c29.92,0,48.28,17.54,53.03,42.92h-26.21c-4.33-11.56-12.17-19.4-26.82-19.4
	c-20.22,0-32.19,17.75-32.19,41.89c0,23.94,11.97,41.89,32.19,41.89c14.65,0,22.49-7.84,26.82-19.6h26.21
	c-4.75,25.59-23.11,43.13-53.03,43.13C87.46,550.27,62.28,523.65,62.28,484.86z M231.07,453.9c-26.83,0-45.19,19.81-45.19,48.29
	c0,28.27,18.36,48.08,45.19,48.08c26.82,0,45.19-19.81,45.19-48.08C276.26,473.71,257.89,453.9,231.07,453.9z M231.07,528.6
	c-12.79,0-19.81-11.14-19.81-26.41c0-15.48,7.01-26.62,19.81-26.62c12.79,0,19.81,11.14,19.81,26.62
	C250.88,517.46,243.86,528.6,231.07,528.6z M345.58,548.21v-54.89c0-9.9-4.13-16.51-13-16.51c-6.6,0-12.79,4.13-14.44,11.97v59.43
	h-25.59v-92.24h25.59v7.64c4.54-5.78,13-9.7,23.32-9.7c10.94,0,19.6,4.95,24.76,11.76c5.98-6.6,14.86-11.76,27.86-11.76
	c18.98,0,30.33,13.21,30.33,34.05v60.25h-25.59v-54.89c0-9.9-4.33-16.51-13.21-16.51c-6.6,0-12.59,4.13-14.24,11.97v59.43H345.58z
	 M498.68,493.32c0-9.9-4.13-16.51-13-16.51c-6.6,0-12.79,4.13-14.44,11.97v59.43h-25.59v-92.24h25.59v7.64
	c4.54-5.78,13-9.7,23.32-9.7c10.94,0,19.6,4.95,24.76,11.76c5.98-6.6,14.86-11.76,27.86-11.76c18.98,0,30.33,13.21,30.33,34.05
	v60.25h-25.59v-54.89c0-9.9-4.33-16.51-13.21-16.51c-6.6,0-12.59,4.13-14.24,11.97v59.43h-25.79V493.32z M654.67,455.97h25.79v92.24
	h-25.59v-8.46c-5.16,5.78-14.03,10.52-24.76,10.52c-20.63,0-32.4-13.62-32.4-34.05v-60.25h25.59v55.09c0,9.7,4.75,16.3,14.86,16.3
	c7.84,0,14.65-4.75,16.51-12.79V455.97z M785.49,487.95v60.25H759.9v-54.89c0-9.7-4.95-16.3-15.06-16.3
	c-7.84,0-14.65,4.75-16.71,12.79v58.4h-25.59v-92.24h25.59v8.46c4.95-5.78,14.03-10.52,24.76-10.52
	C773.73,453.9,785.49,467.52,785.49,487.95z M806.74,455.97h25.59v92.24h-25.59V455.97z M834.59,429.35
	c0,8.67-7.01,14.65-15.06,14.65c-8.26,0-15.27-5.98-15.27-14.65c0-8.46,7.01-14.65,15.27-14.65
	C827.58,414.7,834.59,420.89,834.59,429.35z M898.14,527.57c3.92,0,8.25-1.24,11.14-3.09v22.7c-3.51,1.86-9.7,2.89-16.51,2.89
	c-18.78,0-30.54-9.29-30.54-29.71V476.6h-14.03v-20.63h14.03V431h25.38v24.97h20.22v20.63h-20.22v40.45
	C887.62,524.27,891.54,527.57,898.14,527.57z M1014.52,455.97l-48.08,126.28h-25.18l13.41-33.63l-35.29-92.65h27.03l21.25,61.29
	l21.05-61.29H1014.52z M196.61,583.68h26l-33.02,126.7h-24.14l-22.28-83.57l-22.29,83.57H96.74l-33.02-126.7h26.62l20.63,85.22
	l22.28-85.22h20.63l21.87,85.22L196.61,583.68z M266.14,591.52c0,8.67-7.01,14.65-15.06,14.65c-8.26,0-15.27-5.98-15.27-14.65
	c0-8.46,7.01-14.65,15.27-14.65C259.12,576.87,266.14,583.06,266.14,591.52z M238.28,618.14h25.59v92.24h-25.59V618.14z
	 M334.44,616.08c4.33,0,8.25,0.83,9.7,1.65v25.59c-3.51-2.06-8.05-3.1-12.79-3.1c-8.67,0-15.68,4.54-17.54,13v57.16h-25.59v-92.24
	h25.59v9.08C317.72,620.62,325.36,616.08,334.44,616.08z M396.96,616.08c-25.79,0-44.37,20.43-44.37,48.29
	c0,28.48,17.95,48.08,44.78,48.08c23.11,0,37.56-12.59,40.86-32.19H414.5c-2.06,7.84-8.46,11.56-17.13,11.56
	c-11.35,0-19.19-8.26-20.02-22.08h61.49v-7.84C438.85,634.86,423.99,616.08,396.96,616.08z M377.98,654.25
	c2.27-11.35,9.29-17.33,19.19-17.33c10.52,0,16.3,7.63,16.51,17.33H377.98z M455.14,576.25h25.59v134.13h-25.59V576.25z
	 M541.6,616.08c-25.79,0-44.37,20.43-44.37,48.29c0,28.48,17.95,48.08,44.78,48.08c23.11,0,37.56-12.59,40.86-32.19h-23.73
	c-2.06,7.84-8.46,11.56-17.13,11.56c-11.35,0-19.19-8.26-20.02-22.08h61.49v-7.84C583.49,634.86,568.63,616.08,541.6,616.08z
	 M522.62,654.25c2.27-11.35,9.29-17.33,19.19-17.33c10.52,0,16.3,7.63,16.51,17.33H522.62z M674.89,682.52
	c0,18.78-16.3,29.92-37.76,29.92c-22.49,0-38.38-10.73-41.06-29.51h25.38c2.06,6.6,7.84,10.11,15.48,10.11c7.84,0,13-3.09,13-9.08
	c0-4.13-2.89-6.19-9.28-7.84L622.06,672c-14.03-3.3-23.94-10.52-23.94-26c0-17.95,16.1-29.92,36.73-29.92
	c23.32,0,36.11,11.14,39.21,28.48h-24.35c-1.65-5.16-5.98-9.08-14.44-9.08c-6.19,0-12.17,2.89-12.17,8.67
	c0,3.71,2.48,5.78,8.25,7.22l18.98,4.33C666.43,659.62,674.89,668.49,674.89,682.52z M767.12,682.52c0,18.78-16.3,29.92-37.76,29.92
	c-22.49,0-38.38-10.73-41.06-29.51h25.38c2.06,6.6,7.84,10.11,15.48,10.11c7.84,0,13-3.09,13-9.08c0-4.13-2.89-6.19-9.28-7.84
	L714.3,672c-14.03-3.3-23.94-10.52-23.94-26c0-17.95,16.1-29.92,36.73-29.92c23.32,0,36.11,11.14,39.21,28.48h-24.35
	c-1.65-5.16-5.98-9.08-14.44-9.08c-6.19,0-12.17,2.89-12.17,8.67c0,3.71,2.48,5.78,8.25,7.22l18.98,4.33
	C758.66,659.62,767.12,668.49,767.12,682.52z"/>
</svg>
