<?xml version="1.0" encoding="utf-8"?>
<!-- Generator: Adobe Illustrator 26.0.2, SVG Export Plug-In . SVG Version: 6.00 Build 0)  -->
<svg version="1.1" id="Layer_1" xmlns="http://www.w3.org/2000/svg" xmlns:xlink="http://www.w3.org/1999/xlink" x="0px" y="0px"
	 viewBox="0 0 1056.85 401.41" style="enable-background:new 0 0 1056.85 401.41;" xml:space="preserve">
<style type="text/css">
	.st0{fill:#fff;}
</style>
<path class="st0" d="M186.12,180.63l78.46,78.3c-5.76,11.81-19.54,17.57-31.66,18.02c-20.9,0.61-32.41,15.75-57.86,39.68
	c-8.03,6.97-16.81,12.12-26.2,15.15c-10.45,3.63-21.36,4.24-32.26,2.57c-10.15-1.36-19.84-4.7-28.78-10.45
	c-2.73,6.66-9.09,11.36-17.12,11.36c-10,0-18.18-8.18-18.18-18.48c0-7.72,4.7-14.09,11.06-16.96c-16.51-26.51-15.3-61.19,8.03-86.79
	c8.18-9.09,15.45-16.05,21.51-22.57c9.09-9.69,15.15-18.02,17.12-28.02c0.3-1.06,0.3-2.42,0.61-3.79c0-1.06,0.45-2.27,0.45-3.63
	v-0.91c0-1.06,0.15-2.12,0.15-3.48c1.21-10.9,7.12-22.11,17.42-27.26l48.01,48.01l-8.33,3.48l-16.51,6.82
	c-5.45,2.88-15.75,4.09-14.69,11.06l9.24,34.08l-46.35,60.58l1.21,0.91c10.75-7.88,20.6-16.36,29.84-25.45
	c10.6-10.15,20.45-20.9,29.99-31.96c-1.82-11.36-4.54-22.87-7.27-34.23C164.91,191.69,175.67,186.39,186.12,180.63z M211.11,182.3
	c7.42,0,13.63-6.21,13.63-13.63c0-7.57-6.21-13.63-13.63-13.63c-7.57,0-13.63,6.06-13.63,13.63
	C197.48,176.09,203.54,182.3,211.11,182.3z M211.07,107.28v21.21c22.14,0,40.14,18.01,40.14,40.14h21.21
	C272.43,134.81,244.9,107.28,211.07,107.28z M211.07,58.56v21.21c48.99,0,88.85,39.86,88.85,88.86h21.21
	C321.13,107.94,271.76,58.56,211.07,58.56z M411.21,141.68h-17.58V56.69h34.61c17.99,0,29.9,9.69,29.9,27.82
	c0,17.99-11.91,27.68-29.9,27.68h-17.03V141.68z M411.21,97.11h15.92c9.14,0,13.57-5.26,13.57-12.6c0-7.61-4.43-12.74-13.57-12.74
	h-15.92V97.11z M486.51,102.5c1.38-5.4,5.95-8.58,11.21-8.58c6.78,0,10.1,4.43,10.1,10.94v36.82h17.16v-40.42
	c0-13.7-7.89-22.84-21.87-22.84c-7.2,0-13.29,3.18-16.61,7.06V51.7h-17.16v89.98h17.16V102.5z M540.63,141.68h17.16V79.8h-17.16
	V141.68z M549.21,71.77c5.4,0,10.1-4.01,10.1-9.83c0-5.68-4.71-9.83-10.1-9.83c-5.54,0-10.24,4.15-10.24,9.83
	C538.96,67.76,543.67,71.77,549.21,71.77z M591.29,51.7h-17.16v89.98h17.16V51.7z M624.78,51.7h-17.16v89.98h17.16V51.7z
	 M650.11,164.52H667l32.25-84.72h-17.3l-14.12,41.11L653.57,79.8h-18.13l23.67,62.15L650.11,164.52z M425.75,250.55
	c20.07,0,32.39-11.77,35.57-28.93h-17.58c-2.91,7.89-8.17,13.15-17.99,13.15c-13.57,0-21.59-12.04-21.59-28.1
	c0-16.2,8.03-28.1,21.59-28.1c9.83,0,15.09,5.26,17.99,13.01h17.58c-3.18-17.03-15.5-28.79-35.57-28.79
	c-22.7,0-39.59,17.86-39.59,43.88C386.16,232.69,403.04,250.55,425.75,250.55z M529.7,218.3c0,18.96-12.32,32.25-30.32,32.25
	c-18,0-30.32-13.29-30.32-32.25c0-19.1,12.32-32.39,30.32-32.39C517.38,185.9,529.7,199.19,529.7,218.3z M512.67,218.3
	c0-10.38-4.71-17.86-13.29-17.86c-8.58,0-13.29,7.47-13.29,17.86c0,10.24,4.71,17.72,13.29,17.72
	C507.97,236.01,512.67,228.54,512.67,218.3z M593.51,249.16V209.3c1.11-5.26,5.12-8.03,9.55-8.03c5.95,0,8.86,4.43,8.86,11.07v36.82
	h17.16v-40.42c0-13.98-7.61-22.84-20.35-22.84c-8.72,0-14.67,3.46-18.69,7.89c-3.46-4.57-9.27-7.89-16.61-7.89
	c-6.92,0-12.6,2.63-15.64,6.51v-5.12h-17.16v61.88h17.16V209.3c1.11-5.26,5.26-8.03,9.69-8.03c5.95,0,8.72,4.43,8.72,11.07v36.82
	H593.51z M678.91,249.16h17.3V209.3c1.11-5.26,5.12-8.03,9.55-8.03c5.95,0,8.86,4.43,8.86,11.07v36.82h17.16v-40.42
	c0-13.98-7.61-22.84-20.35-22.84c-8.72,0-14.67,3.46-18.69,7.89c-3.46-4.57-9.27-7.89-16.61-7.89c-6.92,0-12.6,2.63-15.64,6.51
	v-5.12h-17.16v61.88h17.16V209.3c1.11-5.26,5.26-8.03,9.69-8.03c5.95,0,8.72,4.43,8.72,11.07V249.16z M783.55,226.6
	c-1.25,5.4-5.81,8.58-11.07,8.58c-6.78,0-9.97-4.43-9.97-10.94v-36.96h-17.16v40.42c0,13.7,7.89,22.84,21.73,22.84
	c7.2,0,13.15-3.18,16.61-7.06v5.68h17.16v-61.88h-17.3V226.6z M849.44,185.9c-7.2,0-13.29,3.18-16.61,7.06v-5.68h-17.16v61.88h17.16
	v-39.17c1.38-5.4,5.95-8.58,11.21-8.58c6.78,0,10.1,4.43,10.1,10.93v36.82h17.16v-40.42C871.31,195.04,863.42,185.9,849.44,185.9z
	 M894.14,159.6c-5.54,0-10.24,4.15-10.24,9.83c0,5.81,4.71,9.83,10.24,9.83c5.4,0,10.1-4.01,10.1-9.83
	C904.25,163.76,899.54,159.6,894.14,159.6z M885.56,249.16h17.16v-61.88h-17.16V249.16z M939.82,228.26v-27.13h13.57v-13.84h-13.57
	v-16.75h-17.03v16.75h-9.41v13.84h9.41v29.35c0,13.7,7.89,19.93,20.49,19.93c4.57,0,8.72-0.69,11.07-1.94v-15.23
	c-1.94,1.24-4.85,2.08-7.47,2.08C942.45,235.32,939.82,233.11,939.82,228.26z M1007.64,187.29l-14.12,41.11l-14.26-41.11h-18.13
	l23.67,62.15l-9,22.56h16.89l32.25-84.72H1007.64z M462.29,330.13l-14.67-57.17h-13.84l-14.95,57.17l-13.84-57.17h-17.86
	l22.15,84.99h16.2l14.95-56.06l14.95,56.06h16.2l22.15-84.99h-17.44L462.29,330.13z M512.81,268.4c-5.54,0-10.24,4.15-10.24,9.83
	c0,5.81,4.71,9.83,10.24,9.83c5.4,0,10.1-4.01,10.1-9.83C522.91,272.55,518.2,268.4,512.81,268.4z M504.22,357.96h17.16v-61.88
	h-17.16V357.96z M554.88,302.17v-6.09h-17.16v61.88h17.16v-38.34c1.25-5.67,5.95-8.72,11.77-8.72c3.18,0,6.23,0.69,8.58,2.08V295.8
	c-0.97-0.55-3.6-1.11-6.51-1.11C562.64,294.7,557.51,297.74,554.88,302.17z M638.77,325.43v5.26h-41.25
	c0.55,9.27,5.81,14.81,13.43,14.81c5.81,0,10.11-2.49,11.49-7.75h15.92c-2.21,13.15-11.9,21.59-27.41,21.59
	c-17.99,0-30.04-13.15-30.04-32.25c0-18.69,12.46-32.39,29.76-32.39C628.8,294.7,638.77,307.29,638.77,325.43z M621.88,320.3
	c-0.14-6.51-4.02-11.63-11.07-11.63c-6.64,0-11.35,4.01-12.87,11.63H621.88z M649.7,357.96h17.16v-89.98H649.7V357.96z
	 M735.8,325.43v5.26h-41.25c0.55,9.27,5.81,14.81,13.43,14.81c5.81,0,10.11-2.49,11.49-7.75h15.92
	c-2.21,13.15-11.9,21.59-27.41,21.59c-17.99,0-30.04-13.15-30.04-32.25c0-18.69,12.46-32.39,29.76-32.39
	C725.83,294.7,735.8,307.29,735.8,325.43z M718.91,320.3c-0.14-6.51-4.02-11.63-11.07-11.63c-6.64,0-11.35,4.01-12.87,11.63H718.91z
	 M780.64,321.27l-12.74-2.91c-3.88-0.97-5.54-2.35-5.54-4.85c0-3.88,4.01-5.81,8.17-5.81c5.68,0,8.58,2.63,9.69,6.09h16.33
	c-2.08-11.63-10.66-19.1-26.3-19.1c-13.84,0-24.64,8.03-24.64,20.07c0,10.38,6.64,15.23,16.06,17.44l12.46,2.77
	c4.29,1.11,6.23,2.49,6.23,5.26c0,4.01-3.46,6.09-8.72,6.09c-5.12,0-9-2.35-10.38-6.78h-17.03c1.8,12.6,12.46,19.79,27.55,19.79
	c14.4,0,25.33-7.47,25.33-20.07C797.11,329.86,791.44,323.9,780.64,321.27z M842.51,321.27l-12.74-2.91
	c-3.88-0.97-5.54-2.35-5.54-4.85c0-3.88,4.01-5.81,8.17-5.81c5.68,0,8.58,2.63,9.69,6.09h16.33c-2.08-11.63-10.66-19.1-26.3-19.1
	c-13.84,0-24.64,8.03-24.64,20.07c0,10.38,6.64,15.23,16.06,17.44l12.46,2.77c4.29,1.11,6.23,2.49,6.23,5.26
	c0,4.01-3.46,6.09-8.72,6.09c-5.12,0-9-2.35-10.38-6.78h-17.03c1.8,12.6,12.46,19.79,27.55,19.79c14.4,0,25.33-7.47,25.33-20.07
	C858.99,329.86,853.31,323.9,842.51,321.27z"/>
</svg>
