<svg xmlns="http://www.w3.org/2000/svg" width="187" height="187" viewBox="0 0 187 187">
  <path fill="#FFF" d="M0 0h187v187H0z"/>
  <path d="M5.91 6.358h175v175h-175z"/>
  <g fill="#FFF">
    <path d="M26.32 56.546c-.405 0-.75-.344-.75-.75v-22.91c0-.408.345-.752.75-.752h11.393c5.258 0 7.918 2.848 7.918 6.73 0 2.22-.938 3.786-2.44 4.818-.22.156-.22.438.03.563 2.16 1 3.506 2.786 3.506 5.414 0 4.037-3.004 6.885-7.95 6.885H26.322zM37.338 37.83h-4.882c-.344 0-.626.283-.626.627v2.63c0 .343.28.625.625.625h4.54c1.688 0 2.314-.782 2.314-1.94 0-1.16-.658-1.94-1.973-1.94zm.75 8.764h-5.632c-.344 0-.626.28-.626.626v3.035c0 .345.28.626.625.626h5.633c1.69 0 2.316-.906 2.316-2.19 0-1.25-.625-2.096-2.316-2.096zM50.92 56.546c-.406 0-.75-.344-.75-.75v-22.91c0-.408.344-.752.75-.752h17.246c.407 0 .75.344.75.75v4.57c0 .407-.343.75-.75.75h-11.11c-.345 0-.627.282-.627.626v2.253c0 .344.28.626.625.626h8.89c.406 0 .75.343.75.75v4.163c0 .407-.344.75-.75.75h-8.89c-.344 0-.626.282-.626.627v1.877c0 .345.28.626.625.626h11.11c.408 0 .752.344.752.75v4.54c0 .407-.344.75-.75.75H50.92zM71.685 38.207c-.407 0-.75-.345-.75-.75v-4.57c0-.407.343-.75.75-.75h19.967c.407 0 .75.343.75.75v4.57c0 .406-.343.75-.75.75h-6.228c-.345 0-.626.28-.626.625v16.963c0 .407-.344.75-.75.75H79.29c-.407 0-.75-.343-.75-.75V38.832c0-.344-.282-.625-.627-.625h-6.228zM94.82 38.207c-.407 0-.75-.345-.75-.75v-4.57c0-.407.343-.75.75-.75h19.968c.407 0 .75.343.75.75v4.57c0 .406-.343.75-.75.75h-6.228c-.344 0-.626.28-.626.625v16.963c0 .407-.344.75-.75.75h-4.758c-.407 0-.75-.343-.75-.75V38.832c0-.344-.283-.625-.627-.625h-6.23zM118.63 56.546c-.406 0-.75-.344-.75-.75v-22.91c0-.408.344-.752.75-.752h17.246c.407 0 .75.344.75.75v4.57c0 .407-.343.75-.75.75h-11.11c-.344 0-.626.282-.626.626v2.253c0 .344.282.626.626.626h8.888c.407 0 .75.343.75.75v4.163c0 .407-.343.75-.75.75h-8.888c-.344 0-.626.282-.626.627v1.877c0 .345.282.626.626.626h11.11c.407 0 .75.344.75.75v4.54c0 .407-.343.75-.75.75H118.63zM140.38 32.886c0-.407.344-.75.75-.75h11.174c6.26 0 9.14 4.068 9.14 8.918 0 3.224-1.347 6.228-4.257 7.824-.313.157-.376.532-.188.814l4.474 6.228c.188.282 0 .626-.312.626h-5.978c-.47 0-.908-.25-1.19-.626l-3.817-5.415c-.22-.313-.626-.5-1-.5h-1.942c-.344 0-.625.28-.625.626v5.165c0 .407-.345.75-.752.75h-4.726c-.407 0-.75-.343-.75-.75v-22.91zm11.58 4.945h-4.727c-.344 0-.625.283-.625.627v5.258c0 .344.28.626.625.626h4.727c2.503 0 3.442-1.533 3.442-3.223 0-1.878-.938-3.286-3.442-3.286zM26.734 103.697c-.703 0-1.297-.594-1.297-1.297V62.828c0-.703.594-1.297 1.297-1.297H46.41c9.083 0 13.678 4.92 13.678 11.624 0 3.838-1.622 6.54-4.216 8.325-.378.27-.378.756.054.972 3.73 1.73 6.054 4.812 6.054 9.353 0 6.974-5.19 11.893-13.73 11.893H26.733zm19.03-32.327H37.33c-.595 0-1.08.487-1.08 1.082v4.54c0 .596.485 1.082 1.08 1.082h7.838c2.92 0 4-1.352 4-3.35 0-2.003-1.135-3.354-3.405-3.354zm1.296 15.136h-9.73c-.595 0-1.08.486-1.08 1.08v5.245c0 .596.485 1.083 1.08 1.083h9.73c2.92 0 4-1.568 4-3.784 0-2.164-1.08-3.624-4-3.624zM68.36 62.828c0-.703.595-1.297 1.298-1.297h8.217c.703 0 1.297.595 1.297 1.298V102.4c0 .703-.594 1.297-1.297 1.297h-8.217c-.703 0-1.298-.594-1.298-1.297V62.828zM88.524 103.697c-.703 0-1.297-.594-1.297-1.297V62.828c0-.703.594-1.297 1.297-1.297h8.217c.704 0 1.298.595 1.298 1.298v12.164c0 .378.486.54.703.27l11.516-12.758c.54-.594 1.352-.973 2.163-.973h11.352c.486 0 .757.595.433.974l-15.03 16.326c-.432.486-.486 1.19-.108 1.676l16.11 22.164c.323.433 0 1.027-.542 1.027h-10.812c-.81 0-1.622-.433-2.055-1.027l-10.217-14c-.324-.434-1.026-.487-1.35-.055l-1.46 1.567c-.432.487-.703 1.243-.703 1.892V102.4c0 .703-.594 1.297-1.297 1.297h-8.216zM130.89 103.697c-.702 0-1.297-.594-1.297-1.297V62.828c0-.703.595-1.297 1.298-1.297h29.788c.703 0 1.297.595 1.297 1.298v7.893c0 .704-.595 1.298-1.297 1.298h-19.19c-.595 0-1.082.486-1.082 1.08v3.893c0 .596.486 1.082 1.08 1.082h15.354c.703 0 1.297.595 1.297 1.298v7.19c0 .703-.595 1.297-1.297 1.297h-15.353c-.594 0-1.08.486-1.08 1.08v3.245c0 .594.485 1.08 1.08 1.08h19.19c.704 0 1.298.596 1.298 1.298v7.84c0 .702-.595 1.296-1.297 1.296H130.89zM23.946 129.575c-.036-.507.434-1.013.94-1.013h4.885c.833 0 1.014.18 1.448.94.507.94 1.99 1.81 4.522 1.81 2.714 0 3.582-.904 3.582-1.736 0-1.194-1.41-1.917-4.812-3.075-4.486-1.482-10.383-3.653-10.383-9.478 0-5.39 4.595-8.755 11.035-8.755 6.584 0 11.18 3.438 11.54 8.502.037.505-.433 1.012-.94 1.012h-5.028c-.687 0-1.012-.325-1.23-.977-.433-1.194-1.808-2.28-4.196-2.28-2.46 0-3.437.977-3.437 1.918 0 1.122 1.304 1.7 4.668 2.858 3.907 1.376 10.564 3.69 10.564 9.877 0 5.5-4.775 8.394-11.215 8.394-6.406 0-11.435-2.82-11.94-7.995zM69.883 109.677c0-.47.398-.868.868-.868h5.5c.47 0 .868.397.868.867v26.482c0 .47-.398.867-.868.867h-5.5c-.47 0-.867-.398-.867-.868v-8.9c0-.4-.326-.725-.724-.725H59.1c-.398 0-.724.325-.724.724v8.9c0 .47-.398.867-.868.867h-5.462c-.47 0-.87-.398-.87-.868v-26.483c0-.47.4-.868.87-.868h5.462c.47 0 .868.397.868.867v9.37c0 .398.326.724.724.724H69.16c.398 0 .724-.325.724-.723v-9.37zM90.614 109.605c.18-.47.688-.796 1.194-.796h5.427c.507 0 1.013.325 1.194.795l10.743 26.627c.145.36-.108.796-.542.796h-6.15c-.506 0-.976-.326-1.157-.796l-1.013-2.64c-.145-.4-.542-.69-.977-.69h-9.66c-.434 0-.833.29-.977.69l-1.013 2.64c-.18.47-.65.796-1.158.796h-6.15c-.434 0-.687-.435-.542-.796l10.78-26.627zm6.26 16.75c.36 0 .578-.362.47-.688l-2.57-6.91c-.07-.253-.433-.253-.506 0l-2.604 6.91c-.108.326.108.688.47.688h4.74zM111.87 109.677c0-.47.4-.868.87-.868h12.915c7.235 0 10.564 4.702 10.564 10.31 0 3.727-1.557 7.2-4.92 9.045-.363.18-.436.615-.218.94l5.173 7.2c.217.324 0 .723-.362.723h-6.91c-.543 0-1.05-.29-1.375-.724l-4.414-6.26c-.253-.36-.723-.578-1.157-.578h-2.243c-.398 0-.724.326-.724.723v5.97c0 .47-.397.867-.868.867h-5.463c-.47 0-.87-.398-.87-.868v-26.483zm13.386 5.717h-5.463c-.398 0-.724.325-.724.724v6.078c0 .398.325.724.723.724h5.463c2.895 0 3.98-1.773 3.98-3.727 0-2.172-1.085-3.8-3.98-3.8zM141.17 137.028c-.472 0-.87-.398-.87-.868v-26.482c0-.47.398-.868.87-.868h19.933c.47 0 .87.398.87.868v5.282c0 .47-.4.87-.87.87H148.26c-.398 0-.724.325-.724.722v2.605c0 .398.325.724.724.724h10.274c.47 0 .868.4.868.87v4.81c0 .472-.398.87-.868.87H148.26c-.398 0-.724.325-.724.724v2.17c0 .398.325.724.724.724h12.843c.47 0 .87.398.87.868v5.246c0 .47-.4.868-.87.868H141.17zM24.463 155.32c-.228 0-.42-.193-.42-.42v-12.794c0-.227.193-.42.42-.42h5.593c3.618 0 5.348 2.483 5.348 5.227 0 2.884-1.73 5.313-5.348 5.313H27.89c-.193 0-.35.158-.35.35v2.325c0 .23-.193.42-.42.42h-2.657zm5.4-10.453H27.89c-.193 0-.35.157-.35.35v3.478c0 .192.156.35.35.35h1.974c1.468 0 2.01-.91 2.01-2.115 0-1.084-.542-2.063-2.01-2.063zM40.412 142.07c.087-.227.332-.384.577-.384h2.62c.246 0 .49.157.578.384l5.19 12.864c.07.175-.05.385-.26.385h-2.972c-.245 0-.472-.158-.56-.386l-.49-1.275c-.07-.193-.26-.334-.47-.334h-4.668c-.21 0-.402.14-.472.333l-.49 1.274c-.086.228-.314.385-.56.385h-2.97c-.21 0-.332-.21-.262-.386l5.208-12.864zm3.024 8.093c.174 0 .28-.175.227-.333l-1.24-3.338c-.036-.123-.21-.123-.246 0l-1.26 3.338c-.05.157.054.333.23.333h2.29zM50.68 142.105c0-.227.19-.42.42-.42h6.238c3.496 0 5.104 2.273 5.104 4.982 0 1.8-.75 3.478-2.376 4.37-.175.086-.21.296-.105.454l2.5 3.48c.106.157 0 .35-.174.35h-3.338c-.262 0-.507-.14-.664-.35l-2.132-3.024c-.123-.175-.35-.28-.56-.28H54.51c-.193 0-.35.157-.35.35v2.884c0 .228-.193.42-.42.42H51.1c-.227 0-.42-.193-.42-.42v-12.795zm6.466 2.762h-2.64c-.19 0-.35.157-.35.35v2.936c0 .192.158.35.35.35h2.64c1.398 0 1.923-.856 1.923-1.8-.002-1.05-.526-1.836-1.924-1.836zM63.843 145.077c-.227 0-.42-.192-.42-.42v-2.55c0-.228.193-.42.42-.42h11.15c.228 0 .42.192.42.42v2.55c0 .228-.192.42-.42.42h-3.477c-.192 0-.35.157-.35.35v9.473c0 .228-.192.42-.42.42H68.09c-.228 0-.42-.193-.42-.42v-9.473c0-.192-.156-.35-.35-.35h-3.477zM80.215 154.9c0 .227-.192.418-.42.418H77.14c-.23 0-.42-.192-.42-.42v-12.793c0-.227.19-.42.42-.42h2.13c.263 0 .525.124.683.333l5.61 7.01c.07.104.21.052.21-.07v-6.853c0-.227.192-.42.42-.42h2.638c.228 0 .42.193.42.42V154.9c0 .227-.192.418-.42.418h-2.114c-.262 0-.524-.122-.682-.332l-5.61-6.99c-.07-.105-.21-.053-.21.07v6.833zM92.156 155.32c-.228 0-.42-.193-.42-.42v-12.794c0-.227.192-.42.42-.42h9.63c.227 0 .42.193.42.42v2.552c0 .227-.193.42-.42.42H95.58c-.192 0-.35.156-.35.35v1.258c0 .192.158.35.35.35h4.964c.227 0 .42.192.42.418v2.325c0 .226-.193.418-.42.418H95.58c-.192 0-.35.157-.35.35v1.05c0 .19.158.35.35.35h6.206c.227 0 .42.19.42.418v2.534c0 .228-.193.42-.42.42h-9.63zM104.286 142.105c0-.227.192-.42.42-.42h6.24c3.494 0 5.103 2.273 5.103 4.982 0 1.8-.752 3.478-2.378 4.37-.175.086-.21.296-.105.454l2.5 3.48c.104.157 0 .35-.175.35h-3.338c-.262 0-.507-.14-.665-.35l-2.133-3.024c-.123-.175-.35-.28-.56-.28h-1.083c-.192 0-.35.157-.35.35v2.884c0 .228-.192.42-.42.42h-2.638c-.228 0-.42-.193-.42-.42v-12.795zm6.466 2.762h-2.64c-.19 0-.35.157-.35.35v2.936c0 .192.158.35.35.35h2.64c1.398 0 1.923-.856 1.923-1.8 0-1.05-.525-1.836-1.923-1.836zM117.415 151.72c-.018-.246.21-.49.455-.49h2.36c.4 0 .488.086.698.454.245.454.96.874 2.185.874 1.31 0 1.73-.438 1.73-.84 0-.576-.682-.925-2.325-1.485-2.167-.716-5.016-1.765-5.016-4.58 0-2.603 2.22-4.23 5.33-4.23 3.182 0 5.402 1.662 5.577 4.108.017.246-.21.49-.456.49h-2.43c-.332 0-.49-.156-.594-.47-.21-.578-.874-1.102-2.027-1.102-1.188 0-1.66.472-1.66.926 0 .542.63.82 2.255 1.38 1.887.665 5.103 1.784 5.103 4.772 0 2.657-2.306 4.055-5.417 4.055-3.094 0-5.524-1.362-5.768-3.86zM139.59 142.105c0-.227.193-.42.42-.42h2.657c.227 0 .42.193.42.42V154.9c0 .227-.193.418-.42.418h-2.657c-.228 0-.42-.192-.42-.42V150.6c0-.192-.156-.35-.35-.35h-4.857c-.193 0-.35.157-.35.35v4.3c0 .227-.192.418-.42.418h-2.638c-.228 0-.42-.192-.42-.42v-12.793c0-.227.193-.42.42-.42h2.64c.227 0 .418.193.418.42v4.527c0 .192.157.35.35.35h4.858c.194 0 .35-.157.35-.35v-4.527zM145.572 142.105c0-.227.192-.42.42-.42h2.655c.228 0 .42.193.42.42V154.9c0 .227-.192.418-.42.418h-2.656c-.227 0-.418-.192-.418-.42v-12.793zM151.936 155.32c-.228 0-.42-.193-.42-.42v-12.794c0-.227.193-.42.42-.42h5.593c3.617 0 5.347 2.483 5.347 5.227 0 2.884-1.73 5.313-5.348 5.313h-2.168c-.193 0-.35.158-.35.35v2.325c0 .23-.192.42-.42.42h-2.656zm5.4-10.453h-1.975c-.192 0-.35.157-.35.35v3.478c0 .192.158.35.35.35h1.976c1.468 0 2.01-.91 2.01-2.115 0-1.084-.54-2.063-2.01-2.063z"/>
  </g>
</svg>
