<svg width="37" height="28" viewBox="0 0 37 28" fill="none" xmlns="http://www.w3.org/2000/svg">
<g clip-path="url(#clip0)">
<rect width="37" height="27.75" fill="transparent"/>
<path d="M30.525 0V21.275H0L6.475 27.75H37V6.475L30.525 0Z" fill="#414042"/>
<path d="M2.84436 2.98313H4.87011V3.38551H4.06536V5.93851H3.64449V3.38551H2.84436V2.98313Z" fill="#414042"/>
<path d="M7.40002 4.54638H5.75352V5.93851H5.33264V2.98313H5.75352V4.14401H7.40002V2.98313H7.82089V5.93851H7.40002V4.54638Z" fill="#414042"/>
<path d="M9.99929 4.14401V4.54638H9.02804V5.53613H10.3369V5.93851H8.60254V2.98313H10.2907V3.38551H9.02342V4.14401H9.99929Z" fill="#414042"/>
<path d="M13.5512 2.94151C13.972 2.94151 14.3744 3.11263 14.6334 3.39938L14.3513 3.67688C14.1802 3.48725 13.8703 3.34388 13.5558 3.34388C12.9499 3.34388 12.4828 3.82488 12.4828 4.46313C12.4828 5.12913 12.9638 5.58238 13.5928 5.58238C13.756 5.58057 13.9167 5.54225 14.0632 5.47022C14.2096 5.39819 14.3381 5.29429 14.4392 5.16613L14.7398 5.43438C14.6007 5.60468 14.4259 5.74228 14.2276 5.8374C14.0294 5.93252 13.8126 5.98283 13.5928 5.98475C12.7094 5.98475 12.0619 5.33725 12.0619 4.46313C12.0573 3.6075 12.7002 2.94151 13.5512 2.94151Z" fill="#414042"/>
<path d="M16.6129 4.14401V4.54638H15.6417V5.53613H16.9506V5.93851H15.2208V2.98313H16.9089V3.38551H15.6417V4.14401H16.6129Z" fill="#414042"/>
<path d="M17.945 3.76938V5.93851H17.5242V2.98313H17.8202L19.5915 5.15226V2.98313H20.0124V5.93851H19.7164L17.945 3.76938Z" fill="#414042"/>
<path d="M20.4749 2.98313H22.5006V3.38551H21.7005V5.93851H21.2796V3.38551H20.4795V2.98313H20.4749Z" fill="#414042"/>
<path d="M24.3599 4.14401V4.54638H23.3887V5.53613H24.6975V5.93851H22.9678V2.98313H24.6559V3.38551H23.3887V4.14401H24.3599Z" fill="#414042"/>
<path d="M25.6872 4.54638V5.93851H25.2664V2.98313H26.3024C26.5706 2.98313 26.7417 3.04788 26.8759 3.15426C26.9668 3.22692 27.0402 3.3191 27.0906 3.42398C27.141 3.52886 27.1672 3.64375 27.1672 3.76013C27.1672 3.87651 27.141 3.9914 27.0906 4.09628C27.0402 4.20116 26.9668 4.29335 26.8759 4.36601C26.7756 4.44729 26.6562 4.50144 26.529 4.52326L27.5881 5.93388H27.0794L26.0295 4.54176H25.6872V4.54638V4.54638ZM26.2792 4.14401C26.4689 4.14401 26.566 4.10238 26.6354 4.03301C26.7063 3.9617 26.7461 3.8653 26.7464 3.76476C26.7467 3.7149 26.737 3.66548 26.718 3.61941C26.6989 3.57334 26.6708 3.53155 26.6354 3.49651C26.566 3.42713 26.4689 3.38551 26.2792 3.38551H25.6872V4.14401H26.2792Z" fill="#414042"/>
<path d="M4.55094 8.12148V8.52386H3.57969V9.91598H3.15881V6.96061H4.84694V7.36298H3.57969V8.12148H4.55094Z" fill="#414042"/>
<path d="M6.53507 6.91901C7.37219 6.91901 8.01044 7.57576 8.01044 8.44064C8.01044 9.30089 7.36756 9.96226 6.53507 9.96226C5.69794 9.96226 5.05969 9.30551 5.05969 8.44064C5.05969 7.57576 5.70257 6.91901 6.53507 6.91901ZM6.53507 9.55526C7.14094 9.55526 7.58956 9.07889 7.58956 8.43601C7.58956 7.79776 7.13631 7.31676 6.53507 7.31676C5.92919 7.31676 5.48057 7.79776 5.48057 8.43601C5.48057 9.07889 5.93382 9.55526 6.53507 9.55526Z" fill="#414042"/>
<path d="M8.98643 8.52386V9.91598H8.56555V6.96061H9.60156C9.86981 6.96061 10.0409 7.02536 10.1751 7.13173C10.266 7.20439 10.3394 7.29658 10.3898 7.40146C10.4402 7.50634 10.4664 7.62123 10.4664 7.73761C10.4664 7.85399 10.4402 7.96888 10.3898 8.07376C10.3394 8.17864 10.266 8.27083 10.1751 8.34348C10.0748 8.42477 9.95537 8.47892 9.82818 8.50073L10.8873 9.91136H10.3786L9.32868 8.51923H8.98643V8.52386V8.52386ZM9.5738 8.12148C9.76343 8.12148 9.86056 8.07986 9.92993 8.01048C10.0008 7.93918 10.0407 7.84278 10.0409 7.74223C10.0417 7.69231 10.0323 7.64276 10.0132 7.59663C9.99409 7.55049 9.96576 7.50875 9.92993 7.47398C9.86056 7.40461 9.76343 7.36298 9.5738 7.36298H8.9818V8.12148H9.5738V8.12148Z" fill="#414042"/>
<path d="M12.6309 9.91598V6.96061H13.5189C13.986 6.96061 14.2912 7.06236 14.5317 7.23811C14.7169 7.37788 14.8668 7.55897 14.9696 7.76694C15.0724 7.97491 15.1251 8.20401 15.1237 8.43598C15.127 8.66779 15.0755 8.8971 14.9735 9.10525C14.8714 9.31341 14.7216 9.49452 14.5364 9.63386C14.2959 9.80961 13.986 9.91136 13.5189 9.91136H12.6309V9.91598ZM14.3375 7.61273C14.1525 7.45086 13.9074 7.36298 13.4911 7.36298H13.0471V9.51361H13.4911C13.9027 9.51361 14.1479 9.42574 14.3375 9.26386C14.4522 9.15876 14.5435 9.03078 14.6057 8.88818C14.6678 8.74558 14.6993 8.59153 14.6982 8.43598C14.7004 8.28096 14.6693 8.12728 14.607 7.98528C14.5448 7.84327 14.4529 7.71624 14.3375 7.61273V7.61273Z" fill="#414042"/>
<path d="M15.6694 6.96061H16.0903V9.91598H15.6694V6.96061Z" fill="#414042"/>
<path d="M19.3186 9.40723C19.1789 9.57676 19.0039 9.71381 18.8058 9.80886C18.6077 9.9039 18.3913 9.95466 18.1716 9.95761C17.2882 9.95761 16.6407 9.31011 16.6407 8.43598C16.6407 7.58498 17.2836 6.91436 18.1346 6.91436C18.5555 6.91436 18.9579 7.08548 19.2169 7.37223L18.9348 7.64973C18.7636 7.46011 18.4538 7.31673 18.1393 7.31673C17.5334 7.31673 17.0662 7.79773 17.0662 8.43598C17.0662 9.10198 17.5472 9.55524 18.1763 9.55524C18.4444 9.56117 18.7045 9.46342 18.9024 9.28236V8.52386H18.056V8.12149H19.3233L19.3186 9.40723V9.40723Z" fill="#414042"/>
<path d="M19.9939 6.96061H20.4148V9.91598H19.9939V6.96061Z" fill="#414042"/>
<path d="M20.8818 6.96061H22.9076V7.36298H22.1075V9.91598H21.6866V7.36298H20.8865V6.96061H20.8818Z" fill="#414042"/>
<path d="M24.753 9.15748H23.5089L23.199 9.91598H22.7596L23.9853 6.96061H24.2813L25.5069 9.91598H25.0675L24.753 9.15748ZM23.6754 8.75511H24.5865L24.1286 7.65898L23.6754 8.75511Z" fill="#414042"/>
<path d="M26.3486 9.51361H27.6575V9.91598H25.9277V6.96061H26.3486V9.51361Z" fill="#414042"/>
<path d="M5.22619 12.4967H3.57969V13.8889H3.15881V10.9335H3.57969V12.0944H5.22619V10.9335H5.64706V13.8889H5.22619V12.4967Z" fill="#414042"/>
<path d="M6.56293 13.5466C6.3733 13.3385 6.25305 13.0656 6.25305 12.6679V10.9381H6.67393V12.691C6.67393 12.9685 6.7433 13.1442 6.85893 13.2737C6.93826 13.357 7.0337 13.4234 7.13943 13.4687C7.24517 13.514 7.35901 13.5374 7.47405 13.5374C7.58909 13.5374 7.70293 13.514 7.80867 13.4687C7.91441 13.4234 8.00984 13.357 8.08918 13.2737C8.20943 13.1442 8.27418 12.9685 8.27418 12.691V10.9381H8.69505V12.6679C8.69505 13.0656 8.5748 13.3385 8.38518 13.5466C8.26734 13.6707 8.12523 13.7692 7.96769 13.8361C7.81015 13.9029 7.64055 13.9366 7.46943 13.9351C7.29967 13.9366 7.13146 13.9028 6.97542 13.8359C6.81939 13.7691 6.67893 13.6706 6.56293 13.5466V13.5466Z" fill="#414042"/>
<path d="M10.7948 13.2599H10.4988L9.63389 11.9047V13.8935H9.21301V10.9381H9.50901L10.6468 12.7419L11.7845 10.9381H12.0805V13.8935H11.6596V11.9047L10.7948 13.2599Z" fill="#414042"/>
<path d="M14.4531 13.1304H13.209L12.8991 13.8889H12.4597L13.6853 10.9335H13.9813L15.207 13.8889H14.7676L14.4531 13.1304ZM13.3801 12.7326H14.2912L13.8333 11.6365L13.3801 12.7326Z" fill="#414042"/>
<path d="M16.0071 11.7244V13.8935H15.5862V10.9381H15.8822L17.6536 13.1072V10.9381H18.0744V13.8935H17.7784L16.0071 11.7244Z" fill="#414042"/>
<path d="M18.8145 10.9381H19.2353V13.8935H18.8145V10.9381Z" fill="#414042"/>
<path d="M19.8644 10.9381H21.8901V11.3405H21.09V13.8935H20.6691V11.3405H19.869V10.9381H19.8644Z" fill="#414042"/>
<path d="M22.4265 10.9381H22.8474V13.8935H22.4265V10.9381Z" fill="#414042"/>
<path d="M25.0027 12.099V12.5014H24.0315V13.4911H25.3404V13.8935H23.6106V10.9381H25.2987V11.3405H24.0315V12.099H25.0027V12.099Z" fill="#414042"/>
<path d="M25.9277 13.1535C26.0988 13.3663 26.344 13.5328 26.6492 13.5328C26.9221 13.5328 27.1626 13.357 27.1626 13.0888C27.1626 12.6355 26.5382 12.5846 26.1451 12.3303C25.9323 12.1915 25.7705 11.988 25.7705 11.6781C25.7705 11.248 26.1497 10.8919 26.6631 10.8919C26.9549 10.8932 27.2368 10.9981 27.4586 11.1879L27.2088 11.4978C27.0627 11.3697 26.8759 11.2976 26.6816 11.2943C26.4365 11.2943 26.1913 11.433 26.1913 11.692C26.1913 12.0666 26.8203 12.1499 27.1996 12.3996C27.3985 12.5291 27.5835 12.7373 27.5835 13.0749C27.5835 13.5929 27.1811 13.9305 26.6677 13.9305C26.4689 13.9312 26.2725 13.8871 26.0932 13.8014C25.9138 13.7157 25.7561 13.5907 25.6317 13.4356L25.9277 13.1535Z" fill="#414042"/>
<path d="M6.07261 16.5575V17.8664H5.65173V14.911H6.77098C7.05773 14.911 7.24273 14.985 7.38611 15.1052C7.47742 15.1827 7.55078 15.279 7.6011 15.3876C7.65142 15.4963 7.67748 15.6145 7.67748 15.7342C7.67748 15.854 7.65142 15.9722 7.6011 16.0809C7.55078 16.1895 7.47742 16.2858 7.38611 16.3632C7.24273 16.4835 7.05773 16.5575 6.77098 16.5575H6.07261V16.5575ZM6.74786 16.1597C6.95136 16.1597 7.06236 16.1089 7.13636 16.0302C7.21337 15.9528 7.25661 15.8481 7.25661 15.7389C7.25661 15.6297 7.21337 15.5249 7.13636 15.4475C7.06236 15.3689 6.95136 15.318 6.74786 15.318H6.07261V16.1644H6.74786V16.1597Z" fill="#414042"/>
<path d="M8.50071 16.4742V17.8664H8.07983V14.911H9.11121C9.37946 14.911 9.55058 14.9757 9.6847 15.0821C9.77562 15.1548 9.84901 15.247 9.89945 15.3518C9.94989 15.4567 9.97608 15.5716 9.97608 15.688C9.97608 15.8044 9.94989 15.9193 9.89945 16.0241C9.84901 16.129 9.77562 16.2212 9.6847 16.2939C9.58447 16.3752 9.46502 16.4293 9.33783 16.4511L10.397 17.8617H9.8882L8.83833 16.4696L8.50071 16.4742V16.4742ZM9.08808 16.0719C9.27771 16.0719 9.37483 16.0302 9.44421 15.9609C9.5151 15.8896 9.55499 15.7932 9.55521 15.6926C9.55599 15.6427 9.54655 15.5931 9.52746 15.547C9.50837 15.5009 9.48004 15.4591 9.44421 15.4244C9.37483 15.355 9.27771 15.3134 9.08808 15.3134H8.49608V16.0719H9.08808Z" fill="#414042"/>
<path d="M10.7346 14.911H11.1555V17.8664H10.7346V14.911Z" fill="#414042"/>
<path d="M12.1129 15.6972V17.8664H11.692V14.911H11.988L13.7594 17.0801V14.911H14.1803V17.8664H13.8843L12.1129 15.6972Z" fill="#414042"/>
<path d="M16.0487 14.8694C16.4696 14.8694 16.872 15.0405 17.131 15.3272L16.8488 15.6047C16.6777 15.4151 16.3678 15.2717 16.0533 15.2717C15.4475 15.2717 14.9803 15.7527 14.9803 16.391C14.9803 17.057 15.4613 17.5102 16.0903 17.5102C16.2535 17.5084 16.4143 17.4701 16.5607 17.3981C16.7072 17.3261 16.8357 17.2221 16.9367 17.094L17.2373 17.3622C17.0983 17.5325 16.9234 17.6701 16.7252 17.7653C16.527 17.8604 16.3102 17.9107 16.0903 17.9126C15.207 17.9126 14.5595 17.2651 14.5595 16.391C14.5548 15.54 15.1977 14.8694 16.0487 14.8694Z" fill="#414042"/>
<path d="M18.9903 16.0719V16.4742H18.019V17.464H19.3279V17.8664H17.5981V14.911H19.2863V15.3134H18.019V16.0719H18.9903V16.0719Z" fill="#414042"/>
<path d="M19.6284 14.911H21.6542V15.3134H20.854V17.8664H20.4332V15.3134H19.633L19.6284 14.911V14.911Z" fill="#414042"/>
<path d="M23.1944 14.8694C24.0315 14.8694 24.6697 15.5261 24.6697 16.391C24.6697 17.2512 24.0269 17.9126 23.1944 17.9126C22.3572 17.9126 21.719 17.2559 21.719 16.391C21.719 15.5307 22.3619 14.8694 23.1944 14.8694ZM23.1944 17.5102C23.8002 17.5102 24.2489 17.0339 24.2489 16.391C24.2489 15.7527 23.7956 15.2717 23.1944 15.2717C22.5931 15.2717 22.1399 15.7527 22.1399 16.391C22.1399 17.0339 22.5931 17.5102 23.1944 17.5102Z" fill="#414042"/>
<path d="M25.4559 15.6972V17.8664H25.035V14.911H25.331L27.1024 17.0801V14.911H27.5233V17.8664H27.2273L25.4559 15.6972Z" fill="#414042"/>
<path d="M4.43999 16.7194C4.34747 16.8066 4.22485 16.8546 4.09774 16.8535C3.86649 16.8535 3.55199 16.6731 3.55199 16.317C3.55177 16.177 3.60633 16.0425 3.704 15.9423C3.80167 15.842 3.93469 15.784 4.07461 15.7805C4.17146 15.7783 4.26667 15.8057 4.34749 15.8591V15.8083H4.61111V16.4095C4.60708 16.457 4.61503 16.5047 4.63424 16.5483C4.6449 16.5666 4.66056 16.5816 4.67939 16.5914C4.69822 16.6012 4.71945 16.6055 4.74061 16.6038C4.88861 16.6038 4.92099 16.3956 4.92099 16.2523C4.92099 15.8036 4.54636 15.4891 4.13011 15.4891C3.91498 15.4928 3.70984 15.5805 3.55857 15.7336C3.4073 15.8866 3.32193 16.0927 3.32072 16.3079C3.31951 16.523 3.40256 16.7301 3.5521 16.8848C3.70164 17.0395 3.90579 17.1295 4.12086 17.1356C4.29932 17.1388 4.47365 17.0818 4.61574 16.9738L4.76836 17.2004C4.5857 17.3374 4.36306 17.4105 4.13474 17.4085C3.8452 17.4061 3.56829 17.2896 3.36399 17.0845C3.15968 16.8793 3.04444 16.6019 3.04322 16.3123C3.04201 16.0228 3.15491 15.7444 3.35749 15.5375C3.56006 15.3306 3.83598 15.2119 4.12549 15.207C4.68974 15.207 5.19386 15.6464 5.19386 16.243C5.19386 16.5668 5.05049 16.8443 4.73136 16.8443C4.67665 16.8458 4.62226 16.8354 4.57195 16.8139C4.52164 16.7923 4.47661 16.7601 4.43999 16.7194V16.7194ZM4.11161 16.5991C4.15421 16.6006 4.1966 16.5927 4.23577 16.5759C4.27495 16.5591 4.30993 16.5339 4.33824 16.502C4.33419 16.4652 4.33264 16.4281 4.33361 16.391V16.1135C4.30439 16.0847 4.26968 16.0621 4.23154 16.047C4.1934 16.0319 4.15262 16.0246 4.11161 16.0256C4.03556 16.0256 3.96263 16.0558 3.90885 16.1096C3.85508 16.1634 3.82486 16.2363 3.82486 16.3124C3.82486 16.3884 3.85508 16.4614 3.90885 16.5151C3.96263 16.5689 4.03556 16.5991 4.11161 16.5991V16.5991Z" fill="#414042"/>
</g>
<defs>
<clipPath id="clip0">
<rect width="37" height="27.75" fill="transparent"/>
</clipPath>
</defs>
</svg>
