<svg width="152" height="141" viewBox="0 0 152 141" fill="none" xmlns="http://www.w3.org/2000/svg">
<path fill-rule="evenodd" clip-rule="evenodd" d="M138.689 23.5589C128.966 11.2207 114.54 2.58871 97.7208 0.594821C97.4582 0.559908 97.1913 0.577511 96.9355 0.646663C96.6798 0.715814 96.4403 0.835107 96.2311 0.997606C96.0218 1.16011 95.847 1.36257 95.7167 1.59324C95.5863 1.82391 95.5032 2.07817 95.472 2.34126C95.4408 2.60435 95.4622 2.87102 95.535 3.12576C95.6077 3.3805 95.7304 3.61826 95.8958 3.82518C96.0613 4.0321 96.2662 4.20405 96.4987 4.33108C96.7312 4.45811 96.9866 4.53768 97.2501 4.56513C128.744 8.29871 151.201 36.7963 147.468 68.2903C147.433 68.5529 147.45 68.8198 147.52 69.0756C147.589 69.3313 147.708 69.5708 147.87 69.7801C148.033 69.9893 148.235 70.1641 148.466 70.2944C148.697 70.4248 148.951 70.5079 149.214 70.5391C149.477 70.5703 149.744 70.5489 149.999 70.4761C150.253 70.4033 150.491 70.2807 150.698 70.1152C150.905 69.9498 151.077 69.7449 151.204 69.5124C151.331 69.2799 151.41 69.0245 151.438 68.761C153.432 51.9415 148.412 35.8971 138.689 23.5589ZM26.1517 56.0747L16.1128 64.1983L18.858 67.5908L0.76104 82.2351L17.7291 103.204L17.2969 107.296L26.6787 118.889L30.7707 119.32L47.7388 140.288L65.8358 125.644L68.581 129.037L78.619 120.914L75.8732 117.52L74.8844 118.321L65.8462 107.151L62.453 109.897L54.9465 108.719L51.4118 111.579L48.437 107.903L45.625 107.606L52.5924 99.6084L53.0566 100.182C56.0767 103.914 58.13 104.894 60.3892 104.223C64.6492 107.44 67.6377 105.098 73.1694 100.764L73.1695 100.764C74.7889 99.4949 76.6263 98.0552 78.7773 96.5342C90.2369 88.4303 95.7879 86.0428 105.737 87.3501C115.689 88.6583 119.056 86.1664 119.056 86.1664C119.056 86.1664 121.87 78.4868 102.333 53.4256L101.046 57.2098C117.053 78.3095 114.871 85.0574 114.404 85.2237L114.326 85.1955C114.283 85.1696 114.278 85.0344 114.269 84.774C114.207 83.0406 113.951 75.7576 100.717 58.1784L100.081 60.0475L95.3921 62.1916C108.424 79.6706 106.596 85.3175 106.146 85.4414L106.067 85.4124C106.018 85.3858 106.01 85.2483 105.995 84.9822C105.901 83.3891 105.536 77.1856 94.6062 62.551L93.2062 63.1912C93.1998 63.1912 93.2039 63.1995 93.2104 63.2058L93.2044 63.2081L90.2566 73.4432L82.2454 75.4596L81.2103 76.6046L72.5917 80.4697L79.4828 74.2283L86.4698 70.3199L87.1122 58.5441L90.3266 57.0685C75.5528 38.8978 68.4841 37.065 66.8614 36.6442C66.6289 36.5839 66.5082 36.5526 66.4926 36.5064L66.4792 36.4247C66.7106 36.0033 73.6715 35.1944 91.1192 56.7062L94.7436 55.0442L95.7782 51.8954C78.5701 30.844 70.5918 29.0898 68.8839 28.7143C68.6606 28.6652 68.5445 28.6397 68.5289 28.5977L68.515 28.5137C68.7847 28.0871 76.577 27.196 96.0904 50.9443L97.3173 47.2113C76.6654 22.5139 68.5671 23.7724 68.5671 23.7724C68.5671 23.7724 65.4291 26.5459 64.6336 36.5507C63.8368 46.5541 60.3426 51.4849 50.0289 61.0016C48.0932 62.7869 46.3024 64.2828 44.724 65.6013C39.3286 70.1082 36.4139 72.5429 38.6728 77.3821C37.544 79.4495 38.0743 81.6626 41.0944 85.3947L41.5586 85.9684L32.2846 91.1138L32.5809 88.3038L29.6061 84.6277L33.1408 81.7674L33.5528 74.1787L36.946 71.4328L27.909 60.2653L28.8978 59.4651L26.1532 56.0735L26.1517 56.0747ZM49.8051 96.1639L42.2301 104.859L39.6189 101.632L48.4482 94.4871L49.3213 95.5661L49.8051 96.1639ZM44.8299 90.0157L45.7036 91.0955L36.8751 98.2396L34.2645 95.0136L44.3463 89.4165L44.8299 90.0157ZM96.472 11.1228C110.383 12.7683 122.319 19.9109 130.364 30.1196C138.409 40.3284 142.562 53.6033 140.91 67.5135C140.883 67.7775 140.804 68.0335 140.677 68.2666C140.55 68.4996 140.378 68.7051 140.171 68.871C139.964 69.0369 139.726 69.16 139.471 69.2329C139.215 69.3059 138.948 69.3274 138.685 69.2961C138.421 69.2647 138.167 69.1813 137.936 69.0505C137.705 68.9198 137.502 68.7444 137.34 68.5346C137.177 68.3248 137.058 68.0847 136.99 67.8284C136.921 67.5721 136.904 67.3047 136.94 67.0417C139.99 41.3679 121.678 18.1301 96.0025 15.0931C95.7385 15.0664 95.4824 14.9873 95.2493 14.8606C95.0162 14.7339 94.8106 14.562 94.6445 14.355C94.4785 14.148 94.3553 13.91 94.2822 13.655C94.2091 13.3999 94.1875 13.1328 94.2187 12.8692C94.2498 12.6057 94.3331 12.3511 94.4637 12.1201C94.5943 11.8891 94.7696 11.6864 94.9794 11.5238C95.1891 11.3613 95.4291 11.2421 95.6854 11.1733C95.9416 11.1044 96.2091 11.0872 96.472 11.1228ZM122.038 36.6807C115.673 28.6034 106.229 22.9518 95.2239 21.6508C94.9614 21.6162 94.6947 21.6342 94.4392 21.7036C94.1837 21.773 93.9445 21.8924 93.7355 22.055C93.5266 22.2176 93.352 22.42 93.2219 22.6506C93.0918 22.8812 93.0088 23.1353 92.9777 23.3983C92.9466 23.6612 92.9681 23.9277 93.0408 24.1822C93.1136 24.4368 93.2362 24.6744 93.4015 24.8812C93.5668 25.088 93.7715 25.2599 94.0038 25.387C94.2361 25.514 94.4913 25.5937 94.7546 25.6213C114.619 27.9694 128.773 45.9311 126.412 65.7937C126.377 66.0562 126.395 66.3229 126.464 66.5784C126.533 66.834 126.653 67.0733 126.815 67.2823C126.977 67.4914 127.18 67.6661 127.41 67.7964C127.641 67.9266 127.895 68.0098 128.158 68.0411C128.421 68.0723 128.687 68.051 128.942 67.9785C129.196 67.9059 129.434 67.7835 129.641 67.6183C129.848 67.4531 130.02 67.2486 130.147 67.0164C130.274 66.7842 130.354 66.529 130.382 66.2657C131.69 55.2613 128.403 44.7581 122.038 36.6807ZM93.9853 32.1726C102.077 33.1356 109.024 37.2989 113.709 43.2443C118.394 49.1898 120.818 56.9174 119.862 65.0098C119.833 65.2721 119.753 65.5261 119.625 65.7572C119.498 65.9883 119.326 66.1919 119.119 66.3562C118.913 66.5204 118.676 66.6422 118.422 66.7144C118.168 66.7867 117.902 66.8079 117.64 66.777C117.378 66.7461 117.125 66.6635 116.895 66.5342C116.665 66.4048 116.463 66.2312 116.3 66.0233C116.137 65.8155 116.018 65.5775 115.947 65.3231C115.877 65.0686 115.858 64.8029 115.891 64.541C117.549 50.5019 107.55 37.8137 93.5126 36.1429C93.2503 36.1138 92.9964 36.0331 92.7654 35.9054C92.5344 35.7777 92.331 35.6055 92.167 35.3988C92.0029 35.1921 91.8813 34.955 91.8094 34.7011C91.7374 34.4472 91.7164 34.1815 91.7476 33.9195C91.7788 33.6574 91.8615 33.4041 91.9911 33.1742C92.1207 32.9443 92.2945 32.7423 92.5025 32.5799C92.7106 32.4175 92.9487 32.2979 93.2032 32.228C93.4577 32.158 93.7235 32.1392 93.9853 32.1726Z" fill="black"/>
</svg>
