<svg id="Logos" xmlns="http://www.w3.org/2000/svg" viewBox="0 0 120 120"><defs><style>.cls-1{fill:#a41e35;}.cls-2{fill:#fff;}</style></defs><title>Temple-Logo-T-Header</title><rect class="cls-1" x="-0.17" y="-0.17" width="120" height="120.28"/><polygon class="cls-2" points="19.56 12.98 19.56 45.6 26.55 45.6 26.55 19.47 93.44 19.47 93.44 45.6 100.1 45.6 100.1 12.98 19.56 12.98"/><polygon class="cls-2" points="37.53 86.03 37.53 92.69 56 92.69 56 27.63 34.37 27.63 34.37 45.6 41.19 45.6 41.19 34.44 49.18 34.44 49.18 86.03 37.53 86.03 37.53 86.03"/><polygon class="cls-2" points="64.07 27.54 64.07 92.61 82.54 92.61 82.54 85.95 70.89 85.95 70.89 34.36 78.88 34.36 78.88 45.6 85.71 45.6 85.71 27.54 70.89 27.54 64.07 27.54"/><polygon class="cls-2" points="37.53 106.96 82.54 106.96 82.54 100.38 37.53 100.38 37.53 106.96 37.53 106.96"/></svg>